<?xml version="1.0" encoding="iso-8859-1"?>
<!-- Generator: Adobe Illustrator 19.0.0, SVG Export Plug-In . SVG Version: 6.00 Build 0)  -->
<svg xmlns="http://www.w3.org/2000/svg" xmlns:xlink="http://www.w3.org/1999/xlink" version="1.1" id="Capa_1" x="0px" y="0px" viewBox="0 0 384 384" style="enable-background:new 0 0 384 384;" xml:space="preserve" width="512px" height="512px">
<g>
	<g>
		<path d="M192,88C86.128,88,0,174.128,0,280c0,8.832,7.168,16,16,16c8.832,0,16-7.168,16-16c0-88.224,71.776-160,160-160    s160,71.776,160,160c0,8.832,7.168,16,16,16c8.832,0,16-7.168,16-16C384,174.128,297.872,88,192,88z" fill="#F2F2F2"/>
	</g>
</g>
<g>
	<g>
		<path d="M192,144c-74.992,0-136,61.008-136,136c0,8.832,7.168,16,16,16c8.832,0,16-7.168,16-16c0-57.344,46.656-104,104-104    s104,46.656,104,104c0,8.832,7.168,16,16,16c8.832,0,16-7.168,16-16C328,205.008,266.992,144,192,144z" fill="#F2F2F2"/>
	</g>
</g>
<g>
	<g>
		<path d="M192,200c-44.112,0-80,35.888-80,80c0,8.832,7.168,16,16,16c8.832,0,16-7.168,16-16c0-26.472,21.528-48,48-48    s48,21.528,48,48c0,8.832,7.168,16,16,16c8.832,0,16-7.168,16-16C272,235.888,236.112,200,192,200z" fill="#F2F2F2"/>
	</g>
</g>
<g>
</g>
<g>
</g>
<g>
</g>
<g>
</g>
<g>
</g>
<g>
</g>
<g>
</g>
<g>
</g>
<g>
</g>
<g>
</g>
<g>
</g>
<g>
</g>
<g>
</g>
<g>
</g>
<g>
</g>
</svg>
